<svg width="262" height="71" viewBox="0 0 262 71" fill="none" xmlns="http://www.w3.org/2000/svg">
  <path d="M68.4219 40.5195C66.3895 42.4857 63.6711 43.0448 62.5359 41.9018C61.3928 40.7542 61.9621 37.9448 63.9675 35.9922C65.9876 34.0507 68.6577 33.3961 69.8087 34.5426C70.9562 35.6699 70.3914 38.5781 68.4219 40.5195Z" fill="#FCD210" />
  <path d="M76.5542 40.2453C75.1214 41.8263 73.1744 42.4348 72.239 41.6264C71.3003 40.8224 71.6754 38.7081 73.0744 37.1495C74.5286 35.5596 76.5228 34.8185 77.466 35.6505C78.3744 36.45 77.9993 38.6497 76.5542 40.2453Z" fill="#FCD900" />
  <path d="M42.7558 30.225C40.0329 29.6479 36.3196 30.5776 33.7606 33.0984C31.0871 35.7551 29.122 39.3786 30.1831 42.3643C30.6076 43.5927 32.3424 44.7638 33.7606 44.8088C36.4858 44.9255 39.6376 43.6747 41.8036 41.6906C44.0932 39.5683 45.3395 36.4513 45.3901 34.274C45.3901 33.7272 45.3901 33.5015 45.2452 32.8907C45.006 31.6162 43.7653 30.4249 42.7558 30.225Z" fill="#F7A71C" />
  <path d="M57.4024 40.8237C54.7188 43.3928 50.7439 44.3472 49.2134 42.8021C47.6852 41.293 48.6015 37.4989 51.2683 34.9062C53.9294 32.3113 57.6742 31.6903 59.2147 33.2253C60.7317 34.7344 60.0861 38.2209 57.4024 40.8237Z" fill="#F7BA17" />
  <path d="M52.6553 33.9383C53.5996 33.1612 54.6124 32.6413 55.4826 32.5571C54.499 32.931 53.5311 33.369 52.6553 33.9383Z" fill="#F5A41D" />
  <path d="M74.9914 28.2183C73.3464 30.4775 70.6751 31.4532 69.3445 30.537C68.0342 29.6016 68.0195 26.7586 69.6645 24.4825C71.3264 22.2413 74.0156 21.1027 75.3283 22.0291C76.6476 22.961 76.6476 25.9838 74.9914 28.2183Z" fill="#FCD210" />
  <path d="M81.3828 30.6214C80.0466 32.4382 78.0771 33.2915 77.0284 32.5561C75.9527 31.806 76.1065 29.6018 77.4292 27.7794C78.7587 25.9828 80.7743 24.97 81.8073 25.747C82.8639 26.4567 82.7112 28.8237 81.3828 30.6214Z" fill="#FCD900" />
  <path d="M53.5581 21.0724C50.1962 25.0844 45.1254 26.7238 42.9189 24.6352C40.3622 22.1964 40.2724 18.3023 44.0081 13.5908C48.0414 8.51769 52.4969 8.30883 54.8449 10.211C57.1815 12.1131 56.866 17.0694 53.5581 21.0724Z" fill="#F7B419" />
  <path d="M65.9871 25.0666C63.5617 29.2133 59.7664 29.2908 58.054 27.9344C56.3956 26.5847 56.884 22.6682 59.2869 19.8082C61.6719 16.927 65.4627 15.7952 67.0122 17.3189C68.308 18.5911 67.9105 21.8541 65.9871 25.0666Z" fill="#F8C019" />
  <path d="M43.1581 7.92615C43.1772 8.5179 43.1132 9.09281 43.0593 9.67894C43.1042 9.09168 43.1581 8.5179 43.1581 7.92615Z" fill="#F5A41D" />
  <path d="M39.2919 0.693701C30.5673 -2.98255 21.8213 8.83443 22.5309 15.4481C23.0924 20.5908 26.3352 22.6591 30.8817 21.9214C30.9524 21.8944 31.04 21.8944 31.0883 21.863C35.8896 21.2308 39.933 17.3087 41.7555 13.8671C42.4067 12.651 42.8255 11.2194 43.0467 9.73272L43.0602 9.67882C43.1051 9.09269 43.159 8.51778 43.159 7.92603V7.91705C43.1579 4.81458 42.0148 1.86372 39.2919 0.693701Z" fill="#F6A11F" />
  <path d="M21.0352 27.1305C19.0433 27.4516 17.131 28.2736 15.4153 29.4122C12.6418 31.0785 10.3097 33.2669 8.96784 35.881C7.30713 39.1025 7.49127 42.0062 8.92292 44.0184C9.56519 45.0963 10.4725 45.7745 11.3393 46.1406C11.8368 46.3494 12.3286 46.5066 12.835 46.5964H12.8529C14.3665 46.9535 16.0924 46.9277 17.9664 46.4303C23.5022 44.9256 29.7531 38.9217 29.7307 33.2669C29.697 27.7121 25.603 26.1637 21.0352 27.1305Z" fill="#F79821" />
  <path d="M74.964 48.9993C73.4358 50.4736 71.4663 50.9733 70.5758 50.0851C69.7135 49.2262 70.1783 47.1702 71.7234 45.6656C73.264 44.1845 75.2739 43.5916 76.1643 44.4652C77.0458 45.3332 76.5169 47.5048 74.964 48.9993Z" fill="#FCD900" />
  <path d="M65.4525 51.8141C63.3561 53.6444 60.7545 54.1306 59.6653 52.9123C58.6177 51.703 59.4351 49.245 61.5584 47.4361C63.6694 45.635 66.1667 45.1466 67.2603 46.3761C68.3214 47.581 67.5624 50.0299 65.4525 51.8141Z" fill="#FCD210" />
  <path d="M52.7228 55.6947C49.8921 58.1246 46.4348 58.7668 45.0065 57.1589C43.5648 55.5229 44.709 52.2587 47.5094 49.8592C50.3648 47.436 53.6818 46.8039 55.1134 48.423C56.554 50.0355 55.5502 53.2783 52.7228 55.6947Z" fill="#F6BC17" />
  <path d="M37.0596 50.35C31.4666 48.7511 22.5399 55.9025 23.8413 61.509C24.1445 62.779 25.8759 63.8883 27.2705 64.0601C32.8815 64.6395 39.1975 58.6569 39.54 54.3934C39.5075 53.9016 39.4917 53.4165 39.4693 52.9292C39.2919 51.6514 38.0444 50.6184 37.0596 50.35Z" fill="#F9A81A" />
  <path d="M21.9707 56.5852C20.95 52.3397 15.8185 52.6732 12.3556 53.686C11.0868 53.9779 9.78649 54.4753 8.57941 55.1221H8.54349C6.75589 56.0103 5.30853 57.0714 3.94874 58.3605C2.30936 59.9336 -0.501156 63.5054 0.0771173 66.9515C0.68234 70.5671 5.20072 71.6372 9.3104 70.6524C14.2555 69.4959 23.5528 63.2045 21.9707 56.5852Z" fill="#F79A20" />
  <path d="M108.146 26.8991C107.409 24.759 107.47 21.6857 103.858 21.7486C100.314 21.8249 98.6582 24.1717 98.6582 26.9632C98.6582 31.5074 110.106 32.3742 110.964 41.5502C111.488 47.0354 106.153 56.1284 95.4244 56.2272C91.0733 56.2429 85.6476 54.2992 85.5623 45.1142L93.2685 43.4557C93.3684 45.7464 93.1831 49.8718 97.5792 49.8718C100.94 49.8718 102.711 46.6952 102.98 44.1968C103.606 38.441 90.8622 36.8017 90.9206 29.4795C90.9935 22.63 95.4255 15.5459 106.011 15.6413C116.504 15.7132 115.09 25.0969 115.09 25.0969L108.146 26.8991Z" fill="#D2292E" />
  <path fill-rule="evenodd" clip-rule="evenodd" d="M123.968 32.7909L119.854 49.0724C120.775 50.4962 121.945 51.2316 123.41 51.1946C124.304 51.2642 125.209 50.8352 126.061 49.8595C126.941 48.905 127.765 46.9906 128.496 44.0857L130.103 37.7595C130.811 34.9052 130.949 32.9851 130.578 32.0138C130.176 31.0381 129.525 30.6002 128.549 30.6765C127.119 30.6496 125.605 31.3671 123.968 32.7909ZM118.903 26.0907H125.097L124.19 29.6839H124.305C125.209 28.7025 126.401 27.7806 127.914 26.9228C129.445 26.0728 130.959 25.5944 132.537 25.545C135.138 25.554 136.76 26.5714 137.427 28.5813C138.097 30.5833 137.948 33.5061 136.932 37.3261L135.138 44.5416C134.208 48.3504 132.894 51.3035 131.213 53.31C129.526 55.3076 127.389 56.3193 124.78 56.3328C123.893 56.3384 123.013 56.1026 122.129 55.6063C121.219 55.0999 120.145 54.2409 118.849 53.0552L114.699 69.5702H107.946L118.903 26.0907Z" fill="#D2292E" />
  <path fill-rule="evenodd" clip-rule="evenodd" d="M177.426 36.3144H170.734L171.071 35.0187C171.352 33.8655 171.183 32.9986 170.625 32.3979C170.077 31.8061 169.166 31.5075 167.982 31.5075C166.786 31.5075 165.764 31.8061 164.905 32.3979C164.042 32.9986 163.445 33.8655 163.167 35.0187L160.187 46.7851C159.905 47.9293 160.056 48.822 160.614 49.4115C161.194 49.9988 162.069 50.2817 163.283 50.2817C164.46 50.2817 165.503 49.9988 166.37 49.4115C167.225 48.8231 167.797 47.9293 168.11 46.7851L168.565 44.9515H175.303L175.298 45.0559C174.272 48.9635 172.607 51.8088 170.305 53.6256C167.983 55.4424 165.149 56.3171 161.742 56.2879C158.365 56.3171 155.928 55.4424 154.541 53.6256C153.118 51.8088 152.912 48.9646 153.874 45.0559L155.953 36.7445C156.969 32.8594 158.643 29.9714 160.945 28.1973C163.265 26.3895 166.095 25.4721 169.523 25.508C172.813 25.4721 175.194 26.3434 176.6 28.0883C178.033 29.831 178.287 32.5652 177.426 36.3144Z" fill="#D2292E" />
  <path fill-rule="evenodd" clip-rule="evenodd" d="M201.474 42.5811H186.798L185.807 46.5055C185.464 47.9742 185.57 49.0499 186.15 49.727C186.708 50.4221 187.574 50.7623 188.718 50.7623C190.122 50.7252 191.232 50.3367 192.048 49.5653C192.883 48.7512 193.426 47.8035 193.718 46.5953H200.459C199.522 49.7079 197.952 52.0715 195.714 53.7491C193.524 55.4592 190.714 56.2879 187.29 56.3317C184.069 56.2879 181.719 55.3604 180.25 53.4863C178.805 51.6482 178.468 49.0723 179.248 45.7835L181.682 36.0831C182.564 32.7909 184.199 30.242 186.597 28.3758C188.972 26.5152 191.79 25.581 195.047 25.545C198.22 25.5855 200.551 26.4894 202.029 28.3275C203.534 30.1398 203.936 32.5573 203.219 35.6508L201.474 42.5811ZM188.206 37.0139H196.127L196.54 35.3791C196.889 34.0507 196.825 33.0121 196.376 32.244C195.93 31.5063 195.023 31.1234 193.663 31.101C192.301 31.1234 191.195 31.5063 190.35 32.244C189.523 33.0121 188.953 34.0507 188.63 35.3791L188.206 37.0139Z" fill="#D2292E" />
  <path fill-rule="evenodd" clip-rule="evenodd" d="M241.8 42.5811H227.127L226.127 46.5055C225.811 47.9742 225.905 49.0499 226.464 49.727C227.027 50.4221 227.877 50.7623 229.019 50.7623C230.433 50.7252 231.556 50.3367 232.379 49.5653C233.193 48.7512 233.729 47.8035 234.024 46.5953H240.769C239.844 49.7079 238.241 52.0715 236.048 53.7491C233.829 55.4592 231.04 56.2879 227.635 56.3317C224.381 56.2879 222.041 55.3604 220.581 53.4863C219.119 51.6482 218.783 49.0723 219.578 45.7835L222.009 36.0831C222.893 32.7909 224.523 30.242 226.909 28.3758C229.279 26.5152 232.094 25.581 235.384 25.545C238.552 25.5855 240.873 26.4894 242.364 28.3275C243.859 30.1398 244.26 32.5573 243.523 35.6508L241.8 42.5811ZM228.549 37.0139H236.449L236.865 35.3791C237.202 34.0507 237.155 33.0121 236.685 32.244C236.232 31.5063 235.335 31.1234 233.983 31.101C232.626 31.1234 231.529 31.5063 230.682 32.244C229.836 33.0121 229.28 34.0507 228.929 35.3791L228.549 37.0139Z" fill="#D2292E" />
  <path fill-rule="evenodd" clip-rule="evenodd" d="M249.442 32.9581H245.928L247.329 27.3932H250.84L253.404 17.0966H260.15L257.593 27.3932H261.943L260.519 32.9581H256.181L252.365 48.1325C252.203 48.878 252.338 49.4383 252.801 49.7864C253.261 50.1581 253.942 50.3512 254.875 50.3378C255.351 50.3512 255.803 50.3142 256.23 50.2693L254.762 56.07C253.442 56.2597 252.141 56.3372 250.841 56.3316C248.621 56.3372 246.955 55.9027 245.912 54.9988C244.843 54.0578 244.542 52.5408 245.051 50.422L249.442 32.9581Z" fill="#D2292E" />
  <path d="M207.139 46.6738L211.954 27.6222L214.577 17.1279H221.321L218.682 27.6222L210.553 59.2319C209.52 63.1024 207.859 65.9589 205.564 67.7241C203.268 69.5409 200.404 70.4178 197.02 70.3998C193.604 70.4189 191.21 69.5409 189.805 67.7241C188.401 65.9185 188.175 63.0844 189.123 59.16L195.937 59.1319L195.448 60.9072C195.175 62.0783 195.311 62.9407 195.865 63.5234C196.435 64.1062 197.314 64.4184 198.516 64.4184C199.716 64.4184 200.733 64.1062 201.627 63.5234C202.493 62.9396 203.056 62.0783 203.368 60.9072L203.977 58.5222L207.139 46.6738Z" fill="#D2292E" />
  <path fill-rule="evenodd" clip-rule="evenodd" d="M145.47 26.0906H152.2L144.734 55.7948H137.992L145.47 26.0906Z" fill="#D2292E" />
  <path fill-rule="evenodd" clip-rule="evenodd" d="M152.968 23.3262H146.221L147.761 17.0966H154.514L152.968 23.3262Z" fill="#D2292E" />
</svg>