<svg width="17" height="20" viewBox="0 0 17 20" fill="none" xmlns="http://www.w3.org/2000/svg">
<path d="M10.8829 7.24609C10.6242 7.24609 10.4145 7.45577 10.4145 7.71448V16.5669C10.4145 16.8255 10.6242 17.0353 10.8829 17.0353C11.1416 17.0353 11.3513 16.8255 11.3513 16.5669V7.71448C11.3513 7.45577 11.1416 7.24609 10.8829 7.24609Z" fill="#D2292E"/>
<path d="M5.35516 7.24609C5.09645 7.24609 4.88678 7.45577 4.88678 7.71448V16.5669C4.88678 16.8255 5.09645 17.0353 5.35516 17.0353C5.61387 17.0353 5.82355 16.8255 5.82355 16.5669V7.71448C5.82355 7.45577 5.61387 7.24609 5.35516 7.24609Z" fill="#D2292E"/>
<path d="M1.33028 5.95419V17.4942C1.33028 18.1762 1.58039 18.8168 2.01731 19.2764C2.45221 19.7373 3.05744 19.9989 3.69086 20H12.5528C13.1864 19.9989 13.7916 19.7373 14.2264 19.2764C14.6633 18.8168 14.9134 18.1762 14.9134 17.4942V5.95419C15.7819 5.72366 16.3447 4.8846 16.2285 3.99339C16.1121 3.10236 15.353 2.43583 14.4543 2.43565H12.0562V1.85017C12.059 1.35782 11.8643 0.885049 11.5158 0.537238C11.1672 0.18961 10.6937 -0.00396362 10.2014 6.15416e-05H6.04229C5.54993 -0.00396362 5.07643 0.18961 4.72789 0.537238C4.37934 0.885049 4.18467 1.35782 4.18742 1.85017V2.43565H1.78933C0.890625 2.43583 0.131516 3.10236 0.0151524 3.99339C-0.101028 4.8846 0.461763 5.72366 1.33028 5.95419V5.95419ZM12.5528 19.0632H3.69086C2.89003 19.0632 2.26705 18.3753 2.26705 17.4942V5.99536H13.9766V17.4942C13.9766 18.3753 13.3536 19.0632 12.5528 19.0632ZM5.12418 1.85017C5.12107 1.60628 5.21694 1.37154 5.39003 1.19938C5.56293 1.02721 5.79821 0.932619 6.04229 0.936827H10.2014C10.4454 0.932619 10.6807 1.02721 10.8536 1.19938C11.0267 1.37136 11.1226 1.60628 11.1195 1.85017V2.43565H5.12418V1.85017ZM1.78933 3.37242H14.4543C14.92 3.37242 15.2974 3.74987 15.2974 4.21551C15.2974 4.68114 14.92 5.05859 14.4543 5.05859H1.78933C1.3237 5.05859 0.946246 4.68114 0.946246 4.21551C0.946246 3.74987 1.3237 3.37242 1.78933 3.37242V3.37242Z" fill="#D2292E"/>
<path d="M8.12067 7.24609C7.86196 7.24609 7.65228 7.45577 7.65228 7.71448V16.5669C7.65228 16.8255 7.86196 17.0353 8.12067 17.0353C8.37938 17.0353 8.58905 16.8255 8.58905 16.5669V7.71448C8.58905 7.45577 8.37938 7.24609 8.12067 7.24609Z" fill="#D2292E"/>
</svg>
