<svg width="20" height="20" viewBox="0 0 20 20" fill="none" xmlns="http://www.w3.org/2000/svg">
<path d="M16.4283 9.99976C16.0338 9.99976 15.714 10.3196 15.714 10.7141V17.8568C15.714 18.2513 15.3942 18.5711 14.9997 18.5711H2.14282C1.74833 18.5711 1.42854 18.2513 1.42854 17.8568V3.57129C1.42854 3.17679 1.74833 2.857 2.14282 2.857H10.7141C11.1086 2.857 11.4284 2.53721 11.4284 2.14271C11.4284 1.74822 11.1086 1.42847 10.7141 1.42847H2.14282C0.959374 1.42847 0 2.38784 0 3.57129V17.8568C0 19.0402 0.959374 19.9996 2.14282 19.9996H14.9998C16.1832 19.9996 17.1426 19.0402 17.1426 17.8568V10.714C17.1426 10.3196 16.8228 9.99976 16.4283 9.99976Z" fill="#D2292E"/>
<path d="M19.1991 0.800976C18.6863 0.288037 17.9906 -7.24036e-05 17.2653 1.13005e-05C16.5395 -0.0020813 15.8432 0.28653 15.3318 0.801436L5.9233 10.2091C5.84525 10.2877 5.78636 10.3833 5.75117 10.4884L4.32263 14.774C4.19795 15.1483 4.40031 15.5528 4.77459 15.6774C4.8472 15.7016 4.92325 15.7139 4.99976 15.714C5.07643 15.7139 5.15264 15.7016 5.22546 15.6776L9.51111 14.2491C9.61637 14.2139 9.712 14.1547 9.79039 14.0762L19.1988 4.66781C20.2667 3.60008 20.2668 1.86883 19.1991 0.800976ZM18.1888 3.65851L8.90325 12.9441L6.12901 13.8705L7.05256 11.0998L16.3417 1.81426C16.8524 1.30458 17.6796 1.30542 18.1893 1.8161C18.4327 2.06005 18.5699 2.39031 18.5709 2.73496C18.5718 3.08145 18.4343 3.41392 18.1888 3.65851Z" fill="#D2292E"/>
</svg>
