<svg width="38" height="38" viewBox="0 0 38 38" fill="none" xmlns="http://www.w3.org/2000/svg">
<rect x="0.5" y="0.5" width="37" height="37" rx="8.5" fill="#D2292E" stroke="#D2292E"/>
<path d="M28.5119 26.1552L24.281 21.9243C25.1552 20.6068 25.6668 19.0293 25.6668 17.3334C25.6668 12.7384 21.9285 9 17.3334 9C12.7384 9 9 12.7384 9 17.3334C9 21.9285 12.7384 25.6668 17.3334 25.6668C19.0293 25.6668 20.6068 25.1552 21.9243 24.281L26.1552 28.5119C26.8052 29.1627 27.8619 29.1627 28.5119 28.5119C29.1627 27.861 29.1627 26.806 28.5119 26.1552V26.1552ZM11.5 17.3334C11.5 14.1167 14.1167 11.5 17.3334 11.5C20.5501 11.5 23.1668 14.1167 23.1668 17.3334C23.1668 20.5501 20.5501 23.1668 17.3334 23.1668C14.1167 23.1668 11.5 20.5501 11.5 17.3334V17.3334Z" fill="white"/>
</svg>
